<mxfile host="app.diagrams.net" modified="2023-05-16T21:44:48.000Z" agent="Mozilla/5.0 (Windows NT 10.0; Win64; x64; rv:109.0) Gecko/20100101 Firefox/113.0" version="21.3.2" etag="0zBSkY-vfBXniSuwryGB" type="github">
  <diagram name="Page-1" id="vgtDUr5mZUaAcVm3-RPd">
    <mxGraphModel>
      <root>
        <mxCell id="0" />
        <mxCell id="1" parent="0" />
      </root>
    </mxGraphModel>
  </diagram>
</mxfile>
